# xmcd CD database file
#
# Track frame offsets:
#	150
#	21810
#	36897
#	49837
#	80825
#	99607
#	108800
#	129740
#	149085
#	167820
#	187562
#	201092
#
# Disc length: 2926 seconds
#
# Revision: 0
# Processed by: cddbd v1.4PL0 Copyright (c) Steve Scherf et al.
# Submitted via: CDex 1.50Beta7
#
DISCID=a40b6c0c
DTITLE=The Jackys - Zrügg i d'Fiftie's
DYEAR=2001
DGENRE=Blues
TTITLE0=Skala vo 1 bis 10
TTITLE1=Zrügg i d'Fiftie's
TTITLE2=PAX-Boogie
TTITLE3=I bi nid mit de Zahlige hingerdri...
TTITLE4=D'Chäuer-Bar
TTITLE5=Füürbäll im Buch
TTITLE6=I ha e grosse Brüetsch übercho
TTITLE7=Sit über 40 Jahr
TTITLE8=Tier si o Läbewäse
TTITLE9=Bevor mi kritisiersch
TTITLE10=Du lütisch mir i d's Gschäft a
TTITLE11=Am Schluss chli Boogie-Woogie...
EXTD=YEAR: 2001
EXTT0=
EXTT1=
EXTT2=
EXTT3=
EXTT4=
EXTT5=
EXTT6=
EXTT7=
EXTT8=
EXTT9=
EXTT10=
EXTT11=
PLAYORDER=
